<svg xmlns="http://www.w3.org/2000/svg" viewBox="0 0 1200 600" fill="none">
  <rect width="1200" height="600" fill="#04070D"/>
  <g opacity="0.7" fill="#434A56" stroke="#717A88" stroke-width="1.2">
    <path d="M95 204l52-37 63-10 52 22 33 30 34 8 11 29-22 20-20 32-56 14-11 36-44 8-20-19-34-8-8-28-24-26 5-42z"/>
    <path d="M286 364l37 8 26 31 13 44-23 38-34 9-26-19-13-33 10-30z"/>
    <path d="M510 176l52-28 97-18 78 11 53 29 42-7 37 21-8 29-34 5-23 26-55 5-37 25-53-4-40 15-48-4-29-28-23-8-15-24z"/>
    <path d="M760 296l42-20 53 6 30 24 21 43-28 30-50 6-39-16-29-29z"/>
    <path d="M939 188l74-19 62 7 28 24-8 37-39 10-45 25-26 31-45-14-34-39 9-41z"/>
    <path d="M987 424l49-18 42 20 16 42-19 39-58 12-33-24-12-38z"/>
    <path d="M398 427l32 14 10 28-25 33-36-4-14-29z"/>
  </g>
  <g opacity="0.12" stroke="#9AA4B2" stroke-width="1">
    <path d="M0 100h1200M0 200h1200M0 300h1200M0 400h1200M0 500h1200"/>
    <path d="M100 0v600M220 0v600M340 0v600M460 0v600M580 0v600M700 0v600M820 0v600M940 0v600M1060 0v600"/>
  </g>
</svg>
