<svg xmlns="http://www.w3.org/2000/svg" viewBox="0 0 1200 620" fill="none">
  <defs>
    <linearGradient id="ocean" x1="0" y1="0" x2="0" y2="1">
      <stop offset="0" stop-color="#0b111d"/>
      <stop offset="1" stop-color="#04070d"/>
    </linearGradient>
  </defs>
  <rect width="1200" height="620" fill="url(#ocean)"/>
  <g opacity="0.18" stroke="#6e7a94" stroke-width="0.8">
    <path d="M0 80h1200M0 160h1200M0 240h1200M0 320h1200M0 400h1200M0 480h1200M0 560h1200"/>
    <path d="M100 0v620M200 0v620M300 0v620M400 0v620M500 0v620M600 0v620M700 0v620M800 0v620M900 0v620M1000 0v620M1100 0v620"/>
  </g>
  <g fill="#2b3444" stroke="#8e98aa" stroke-opacity="0.45" stroke-width="1.2">
    <path d="M82 170l42-52 55-12 70 18 60 36 24 40-22 26-42 14-8 24-31 10-14 18-8 39-34 10-24-22-27-12-8-36-20-34 12-47z"/>
    <path d="M291 365l47-8 38 22 21 33 8 41-18 28-42 13-41-15-20-34 7-36z"/>
    <path d="M474 144l66-26 91-8 95 16 70-11 63 20 40 28 44-4 43 22 9 28-35 11-31 22-29 34-54 18-72-8-60 12-66-16-41-26-33 4-28-34 7-31-22-20z"/>
    <path d="M668 290l39-14 56 8 33 28 15 30-8 37-36 17-55-9-34-28-19-34z"/>
    <path d="M860 208l58-11 57 16 41 25 44 4 40-20 25 13-11 31-28 9-44 19-36 34-51-9-33-20-41-30z"/>
    <path d="M1009 441l59-14 41 23 19 41-20 38-63 19-42-24-14-41z"/>
    <path d="M815 171l37-39 41-18 27 11-20 37-39 24z"/>
    <path d="M528 422l28-17 31 15 12 26-18 25-37-6-19-19z"/>
  </g>
  <rect width="1200" height="620" fill="url(#v)"/>
  <defs>
    <radialGradient id="v" cx="50%" cy="45%" r="65%">
      <stop offset="0.45" stop-color="#000" stop-opacity="0"/>
      <stop offset="1" stop-color="#000" stop-opacity="0.5"/>
    </radialGradient>
  </defs>
</svg>
